<svg width="46" height="46" viewBox="0 0 46 46" fill="none" xmlns="http://www.w3.org/2000/svg">
<mask id="mask0_6_198" style="mask-type:alpha" maskUnits="userSpaceOnUse" x="0" y="0" width="46" height="46">
<rect x="16.5" width="33" height="33" transform="rotate(30 16.5 0)" fill="#D9D9D9"/>
</mask>
<g mask="url(#mask0_6_198)">
<path d="M26.7894 30.7792C25.6729 32.713 24.05 33.9701 21.9205 34.5504C19.7912 35.131 17.7613 34.864 15.8308 33.7495C13.9004 32.6349 12.6522 31.0093 12.0864 28.8727C11.5205 26.7362 11.7958 24.701 12.9123 22.7672L19.0933 12.0615C19.8865 10.6875 21.0379 9.79509 22.5474 9.38425C24.0567 8.97329 25.4983 9.16444 26.8723 9.9577C28.2462 10.751 29.1327 11.9039 29.5316 13.4166C29.9306 14.9293 29.7334 16.3726 28.9402 17.7466L23.0897 27.8798C22.6244 28.6858 21.9464 29.2118 21.0558 29.4578C20.1649 29.7038 19.316 29.5938 18.509 29.1279C17.7019 28.6619 17.1767 27.9811 16.9334 27.0857C16.6901 26.1903 16.8034 25.3357 17.2733 24.5218L23.3087 14.0682L25.0946 15.0992L19.0592 25.5528C18.875 25.872 18.8271 26.2026 18.9156 26.5448C19.0041 26.887 19.2079 27.1502 19.527 27.3344C19.846 27.5186 20.1757 27.5634 20.5163 27.469C20.8569 27.3745 21.1193 27.1677 21.3035 26.8486L27.1605 16.704C27.6559 15.8175 27.7804 14.8965 27.534 13.9411C27.2875 12.9856 26.7232 12.2532 25.841 11.7439C24.9626 11.2367 24.043 11.1149 23.0822 11.3784C22.1213 11.6421 21.3871 12.2135 20.8794 13.0927L14.6985 23.7985C13.855 25.231 13.6458 26.7427 14.0708 28.3334C14.4958 29.9243 15.4276 31.1351 16.8663 31.9657C18.2845 32.7845 19.7814 32.976 21.3569 32.54C22.9322 32.1042 24.1476 31.1735 25.0032 29.7479L31.3691 18.7218L33.1553 19.7531L26.7894 30.7792Z" fill="white"/>
</g>
</svg>
