<svg width="29" height="29" viewBox="0 0 29 29" fill="none" xmlns="http://www.w3.org/2000/svg">
<mask id="mask0_6_88" style="mask-type:alpha" maskUnits="userSpaceOnUse" x="0" y="0" width="29" height="29">
<rect width="29" height="29" fill="#D9D9D9"/>
</mask>
<g mask="url(#mask0_6_88)">
<path d="M23.6274 24.2642L24.3805 23.5114L22.1684 21.2993V17.9622H21.0993V21.7361L23.6274 24.2642ZM15.0344 16.884V12.1996H17.9274L16.8586 11.1306H15.0344V6.52983C15.0344 6.21828 15.1386 5.95839 15.347 5.75016C15.5552 5.54172 15.8151 5.4375 16.1267 5.4375H18.9753C19.1737 5.4375 19.3589 5.48513 19.5309 5.58038C19.7028 5.67564 19.8353 5.81621 19.9281 6.00209L22.1681 10.0153H20.5323L19.3705 7.73817H16.7656V8.80694H18.7267L19.8771 11.084H22.7632L24.3944 13.9399C23.9636 13.7726 23.5167 13.6459 23.0535 13.5599C22.5903 13.4741 22.117 13.4312 21.6337 13.4312C20.2612 13.4312 18.9979 13.7445 17.8437 14.371C16.6896 14.9977 15.7531 15.8354 15.0344 16.884ZM12.8732 23.5625H10.0246C9.82624 23.5625 9.64106 23.5149 9.46907 23.4196C9.29708 23.3244 9.16467 23.1838 9.07183 22.9979L6.83188 18.9847H8.46767L9.62948 21.2618H12.2343V20.1931H10.2732L9.1114 17.916H6.23678L4.60795 15.0462C4.56767 14.9531 4.53434 14.8621 4.50796 14.7731C4.48157 14.6841 4.46838 14.593 4.46838 14.5C4.46838 14.435 4.5149 14.2529 4.60795 13.9538L6.23678 11.084H9.1114L10.2732 8.80694H12.2343V7.73817H9.62948L8.46767 10.0153H6.83188L9.07183 6.00209C9.16467 5.81621 9.29708 5.67564 9.46907 5.58038C9.64106 5.48513 9.82624 5.4375 10.0246 5.4375H12.8732C13.1848 5.4375 13.4447 5.54172 13.6529 5.75016C13.8614 5.95839 13.9656 6.21828 13.9656 6.52983V11.1306H12.1413L11.0725 12.1996H13.9656V15.6618H11.4465L10.308 13.3962H7.79613L6.72706 14.4653H9.66422L10.8031 16.7309H13.9656V19.0615C13.8262 19.4441 13.7216 19.841 13.6517 20.2523C13.582 20.6637 13.5472 21.0855 13.5472 21.5177C13.5472 21.7904 13.5585 22.0591 13.581 22.324C13.6034 22.5888 13.6494 22.8575 13.7191 23.1302C13.6339 23.2541 13.5158 23.3571 13.3647 23.4392C13.2137 23.5214 13.0499 23.5625 12.8732 23.5625ZM21.6337 26.9552C20.1249 26.9552 18.8414 26.4261 17.7833 25.3681C16.7254 24.31 16.1965 23.0265 16.1965 21.5177C16.1965 20.0087 16.7254 18.7252 17.7833 17.6673C18.8414 16.6092 20.1249 16.0802 21.6337 16.0802C23.1427 16.0802 24.4261 16.6092 25.484 17.6673C26.5421 18.7252 27.0712 20.0087 27.0712 21.5177C27.0712 23.0265 26.5421 24.31 25.484 25.3681C24.4261 26.4261 23.1427 26.9552 21.6337 26.9552Z" fill="white"/>
</g>
</svg>
