<svg width="20" height="20" viewBox="0 0 20 20" fill="none" xmlns="http://www.w3.org/2000/svg">
<mask id="mask0_6_75" style="mask-type:alpha" maskUnits="userSpaceOnUse" x="0" y="0" width="20" height="20">
<rect width="20" height="20" fill="#D9D9D9"/>
</mask>
<g mask="url(#mask0_6_75)">
<path d="M14.7226 14.1843V5.81576L10.5273 10L14.7226 14.1843ZM2.19235 19.9167C1.61058 19.9167 1.11358 19.7107 0.701355 19.2986C0.289327 18.8864 0.083313 18.3894 0.083313 17.8076V2.19239C0.083313 1.61061 0.289327 1.11361 0.701355 0.701385C1.11358 0.289357 1.61058 0.0833435 2.19235 0.0833435H17.8076C18.3894 0.0833435 18.8864 0.289357 19.2986 0.701385C19.7106 1.11361 19.9166 1.61061 19.9166 2.19239V17.8076C19.9166 18.3894 19.7106 18.8864 19.2986 19.2986C18.8864 19.7107 18.3894 19.9167 17.8076 19.9167H2.19235ZM5.33331 18.1667V1.83334H2.19235C2.10252 1.83334 2.02027 1.87077 1.94561 1.94563C1.87074 2.0203 1.83331 2.10255 1.83331 2.19239V17.8076C1.83331 17.8975 1.87074 17.9797 1.94561 18.0544C2.02027 18.1292 2.10252 18.1667 2.19235 18.1667H5.33331ZM7.08331 18.1667H17.8076C17.8974 18.1667 17.9797 18.1292 18.0544 18.0544C18.1292 17.9797 18.1666 17.8975 18.1666 17.8076V2.19239C18.1666 2.10255 18.1292 2.0203 18.0544 1.94563C17.9797 1.87077 17.8974 1.83334 17.8076 1.83334H7.08331V18.1667Z" fill="white"/>
</g>
</svg>
