<svg width="20" height="20" viewBox="0 0 20 20" fill="none" xmlns="http://www.w3.org/2000/svg">
<mask id="mask0_10_33" style="mask-type:alpha" maskUnits="userSpaceOnUse" x="0" y="0" width="20" height="20">
<rect width="20" height="20" transform="matrix(-1 0 0 1 20 0)" fill="#D9D9D9"/>
</mask>
<g mask="url(#mask0_10_33)">
<path d="M5.27735 14.1843V5.81576L9.47269 10L5.27735 14.1843ZM17.8076 19.9167C18.3894 19.9167 18.8864 19.7107 19.2986 19.2986C19.7107 18.8864 19.9167 18.3894 19.9167 17.8076V2.19239C19.9167 1.61061 19.7107 1.11361 19.2986 0.701385C18.8864 0.289357 18.3894 0.0833435 17.8076 0.0833435H2.19239C1.61062 0.0833435 1.11362 0.289357 0.701393 0.701385C0.289365 1.11361 0.0833523 1.61061 0.0833523 2.19239V17.8076C0.0833523 18.3894 0.289365 18.8864 0.701393 19.2986C1.11362 19.7107 1.61062 19.9167 2.19239 19.9167H17.8076ZM14.6667 18.1667V1.83334H17.8076C17.8975 1.83334 17.9797 1.87077 18.0544 1.94563C18.1293 2.0203 18.1667 2.10255 18.1667 2.19239V17.8076C18.1667 17.8975 18.1293 17.9797 18.0544 18.0544C17.9797 18.1292 17.8975 18.1667 17.8076 18.1667H14.6667ZM12.9167 18.1667H2.19239C2.10256 18.1667 2.02031 18.1292 1.94564 18.0544C1.87078 17.9797 1.83335 17.8975 1.83335 17.8076V2.19239C1.83335 2.10255 1.87078 2.0203 1.94564 1.94563C2.02031 1.87077 2.10256 1.83334 2.19239 1.83334H12.9167V18.1667Z" fill="white"/>
</g>
</svg>
