<svg width="434" height="412" viewBox="0 0 434 412" fill="none" xmlns="http://www.w3.org/2000/svg">
<path d="M409.927 105.836C405.18 97.0701 399.416 90.9018 392.634 87.3306C392.295 77.9158 387.888 70.1242 380.767 63.3066C372.291 55.1904 361.102 50.9699 348.895 50.9699C334.994 35.3868 301.088 25.9719 272.945 30.1924C259.044 23.6994 241.073 24.024 228.867 24.024C227.172 24.024 225.816 24.024 224.12 24.024H222.425C207.845 24.024 182.416 23.6994 168.514 35.3868C154.952 30.1924 133.591 32.4649 116.298 37.3347C94.9375 43.8276 80.0188 53.8918 74.5938 65.9038C60.6922 69.1503 43.061 81.1623 32.55 95.7715C24.4125 107.134 16.6141 124.341 23.7344 145.768C15.5969 165.896 20.0047 187.647 35.6016 204.854C51.5375 222.709 75.611 230.501 96.9719 224.982C108.839 226.281 117.655 225.631 123.758 224.333C125.114 234.397 129.183 247.383 141.05 256.473C145.797 266.862 154.952 274.653 166.819 277.9C180.381 281.471 195.3 279.198 206.489 271.731C210.558 271.407 215.305 271.082 220.391 270.108C219.713 278.224 220.391 285.691 222.425 292.184C223.103 299.002 229.545 335.687 267.52 353.218C306.173 371.074 304.478 381.788 304.478 385.034C304.478 395.747 317.363 401.916 330.247 402.24C330.586 402.24 330.925 402.24 331.942 402.24C344.827 402.24 354.32 395.423 354.998 385.359C356.694 363.932 352.964 360.036 336.689 341.856C331.264 335.687 327.873 324.974 325.839 317.832C333.298 316.208 340.08 313.936 346.522 310.689C356.355 310.689 365.848 307.118 372.969 300.301C380.089 293.483 384.158 285.042 384.836 275.303C407.892 260.044 419.42 225.956 412.639 191.543C423.489 167.519 422.133 129.535 409.927 105.836ZM372.969 263.291C369.917 264.914 368.222 267.836 368.9 270.433C369.239 277.25 366.866 283.743 362.119 288.289C358.05 292.184 352.286 294.457 346.861 294.457C324.483 286.341 325.5 269.134 325.839 267.186C326.178 262.641 322.788 258.745 318.38 258.421C313.972 258.096 309.564 261.343 309.225 265.563C307.869 274.004 310.92 290.236 326.178 301.924C315.667 304.846 302.105 305.82 284.134 305.82C263.791 305.82 250.228 301.924 243.447 293.483C238.361 287.315 237.005 278.549 239.378 267.836C264.13 263.291 272.267 274.329 272.606 274.978C274.302 277.25 276.675 278.874 279.727 278.874C281.083 278.874 282.778 278.549 283.795 277.575C287.864 275.627 289.22 270.433 287.186 266.862C286.847 266.212 272.606 243.487 230.902 252.902C222.425 254.525 214.966 255.174 208.523 255.824C190.553 235.371 203.438 220.761 205.133 219.138C208.523 215.892 208.184 210.697 204.794 207.776C201.403 204.529 195.978 204.854 192.927 207.776C184.111 216.216 174.278 237.968 192.248 261.667C186.484 263.615 179.364 263.94 173.261 262.317C167.836 260.693 161.055 257.447 157.664 248.681C157.325 247.058 155.969 245.759 154.613 245.11C139.355 234.397 141.728 214.593 142.067 211.347C145.119 203.23 154.273 185.05 180.381 177.908C192.248 174.661 201.742 176.609 213.609 178.557C217 179.206 220.73 179.856 224.459 180.505C228.528 209.399 260.739 220.437 261.756 221.086C262.434 221.411 263.452 221.411 264.808 221.411C268.198 221.411 271.589 219.463 272.945 216.216C274.641 212.321 272.267 207.451 267.859 206.152C267.52 206.152 247.177 199.01 242.091 182.128C269.894 181.479 280.066 161.351 281.083 150.313C281.422 145.768 278.709 141.872 273.963 141.547C269.216 141.222 265.147 143.82 264.808 148.365C264.469 149.988 261.417 166.22 240.395 166.22C231.919 166.22 224.459 164.597 217.339 163.299C204.794 161.026 191.57 158.429 176.313 162.974C156.986 168.168 144.78 178.557 137.32 188.297C131.895 181.154 123.758 176.609 116.977 173.038C112.23 170.765 107.822 168.168 104.77 164.922C97.311 157.78 106.127 142.846 106.127 142.846C108.5 139.275 107.483 134.08 103.075 132.132C97.9891 128.561 92.9031 129.86 90.5297 133.755C84.7656 143.495 77.9844 162.649 91.886 175.96C96.6328 180.505 102.397 183.751 107.822 186.349C119.011 192.517 125.453 196.413 125.453 206.802C123.419 208.1 116.977 211.347 98.6672 209.074C97.311 209.074 96.6328 209.074 95.2766 209.399C79.6797 213.944 62.0485 207.776 49.5032 194.465C37.2969 181.154 34.2453 164.273 41.3656 149.339C42.0438 147.391 42.0438 145.443 41.3656 143.17C34.9235 126.938 41.0266 113.627 47.1297 104.862C52.5547 97.0701 60.0141 91.2264 66.4563 87.006C68.4906 88.3046 70.525 88.6292 73.2375 88.3046C94.5985 83.1102 108.839 106.81 109.856 108.108C111.552 111.03 113.925 112.004 116.977 112.004C118.333 112.004 120.028 111.679 121.045 110.705C125.114 108.757 126.47 103.563 124.436 99.992C123.758 98.6934 111.891 78.5651 90.8688 72.7214C93.9203 64.9298 105.448 57.4629 122.402 52.5932C144.102 46.1002 161.394 47.7234 165.123 50.6453C178.008 68.501 170.209 78.5651 160.038 91.2264C158.003 94.1483 155.969 96.4208 153.595 99.3427C136.642 123.367 148.848 141.547 158.342 148.04C160.038 149.339 161.733 149.663 163.428 149.663C165.802 149.663 168.514 148.365 170.209 146.417C173.261 142.846 172.244 137.976 168.514 135.054C166.48 133.431 156.308 124.665 168.175 108.108C169.87 105.836 171.905 103.238 173.6 100.966C183.433 88.9539 198.013 71.0982 182.416 46.1002C192.248 39.6072 214.288 39.6072 223.442 39.9319H225.138C226.494 39.9319 228.189 39.9319 229.884 39.9319C241.073 39.9319 258.366 39.9319 268.538 45.1262C270.233 45.7755 272.267 46.4248 274.302 45.7755C298.375 41.2305 325.5 50.3206 335.672 59.4108C330.925 68.1763 323.127 87.9799 327.534 106.485C332.62 128.236 333.298 133.755 314.989 140.248C310.92 141.872 308.208 146.417 309.903 150.637C311.259 153.884 314.65 155.832 318.041 155.832C318.719 155.832 320.075 155.832 321.092 155.507C333.298 150.962 340.419 145.443 344.148 138.95C346.183 139.599 347.539 140.898 348.895 142.521C354.659 149.663 353.981 162.974 353.642 167.519C352.964 172.064 356.016 175.96 360.763 176.934C361.102 176.934 361.441 176.934 362.119 176.934C366.188 176.934 369.578 174.012 370.595 170.116C370.934 167.844 373.986 146.741 362.458 132.782C358.728 127.912 353.642 124.665 347.878 122.717C347.539 116.224 346.183 109.407 344.488 102.589C341.097 88.6292 347.878 72.7214 351.269 65.9038C358.728 66.2284 365.509 69.1503 370.595 73.6954C375.681 78.5651 377.716 85.0581 377.377 91.5511C377.038 95.4469 379.75 99.6673 384.158 100.317C388.227 100.966 392.973 105.511 396.364 112.329C406.197 131.158 407.214 163.948 399.416 183.102C399.416 183.427 399.077 183.427 399.077 183.427C391.617 193.816 381.784 194.14 365.509 194.14C360.084 194.14 354.998 194.14 349.234 194.465C323.466 196.737 311.259 221.411 310.92 222.709C308.886 226.605 310.92 231.475 314.989 233.423C316.345 233.747 317.363 234.072 318.38 234.072C321.77 234.072 324.822 232.449 325.839 229.202C325.839 229.202 334.655 211.996 350.591 210.373C355.338 210.048 360.423 210.048 365.17 210.048C376.359 210.048 388.566 210.048 399.077 204.529C399.416 230.826 389.922 254.2 372.969 263.291Z" fill="#EBE9E9"/>
<path d="M250.567 87.3307C251.245 78.8898 249.889 71.7475 249.889 70.7736C249.211 66.2285 244.464 63.9559 239.717 64.6052C234.97 65.2545 232.597 69.7996 233.275 74.3447C233.275 74.3447 237.005 92.2004 227.511 98.0441C225.816 98.6934 224.12 99.992 222.425 100.966C208.523 109.082 192.587 117.848 196.317 138.301C196.995 142.196 200.386 145.118 204.794 145.118C205.133 145.118 205.472 145.118 206.489 145.118C211.236 144.469 213.948 140.248 213.27 135.703C211.575 126.938 216.661 123.367 231.241 114.926C232.936 114.277 234.631 112.978 236.327 112.004C240.056 110.056 242.769 107.134 244.803 104.212C268.877 100.317 281.422 118.822 281.761 119.471C283.456 121.743 285.83 123.042 288.881 123.042C290.577 123.042 291.933 122.717 292.95 121.743C296.68 119.471 298.036 114.601 296.002 110.381C290.238 101.94 273.963 87.3307 250.567 87.3307Z" fill="#EBE9E9"/>
</svg>
