<svg width="29" height="29" viewBox="0 0 29 29" fill="none" xmlns="http://www.w3.org/2000/svg">
<mask id="mask0_6_116" style="mask-type:alpha" maskUnits="userSpaceOnUse" x="0" y="0" width="29" height="29">
<rect width="29" height="29" fill="#D9D9D9"/>
</mask>
<g mask="url(#mask0_6_116)">
<path d="M10.3917 18.4201L6.47155 14.5L10.3917 10.5799L11.6535 11.8719L9.02536 14.5L11.6535 17.1281L10.3917 18.4201ZM18.6084 18.4201L17.3466 17.1281L19.9747 14.5L17.3466 11.8719L18.6084 10.5799L22.5285 14.5L18.6084 18.4201ZM6.41355 24.7708C5.80314 24.7708 5.28648 24.5594 4.86356 24.1365C4.44065 23.7135 4.22919 23.1969 4.22919 22.5865V18.125H6.04169V22.5865C6.04169 22.6795 6.08045 22.7647 6.15799 22.842C6.23532 22.9196 6.32051 22.9583 6.41355 22.9583H10.875V24.7708H6.41355ZM18.125 24.7708V22.9583H22.5865C22.6795 22.9583 22.7647 22.9196 22.8421 22.842C22.9196 22.7647 22.9584 22.6795 22.9584 22.5865V18.125H24.7709V22.5865C24.7709 23.1969 24.5594 23.7135 24.1365 24.1365C23.7136 24.5594 23.1969 24.7708 22.5865 24.7708H18.125ZM4.22919 10.875V6.41353C4.22919 5.80312 4.44065 5.28646 4.86356 4.86354C5.28648 4.44062 5.80314 4.22917 6.41355 4.22917H10.875V6.04167H6.41355C6.32051 6.04167 6.23532 6.08043 6.15799 6.15797C6.08045 6.2353 6.04169 6.32049 6.04169 6.41353V10.875H4.22919ZM22.9584 10.875V6.41353C22.9584 6.32049 22.9196 6.2353 22.8421 6.15797C22.7647 6.08043 22.6795 6.04167 22.5865 6.04167H18.125V4.22917H22.5865C23.1969 4.22917 23.7136 4.44062 24.1365 4.86354C24.5594 5.28646 24.7709 5.80312 24.7709 6.41353V10.875H22.9584Z" fill="white"/>
</g>
</svg>
